<?xml version="1.0" encoding="UTF-8"?> <svg xmlns="http://www.w3.org/2000/svg" width="23" height="23" viewBox="0 0 23 23" fill="none"><path fill-rule="evenodd" clip-rule="evenodd" d="M0 10.4778C0 4.69111 4.69111 0 10.4778 0C16.2646 0 20.9557 4.69111 20.9557 10.4778C20.9557 12.9739 20.0828 15.2661 18.6257 17.066L22.677 21.1172C23.1077 21.5479 23.1077 22.2462 22.677 22.677C22.2462 23.1077 21.5479 23.1077 21.1172 22.677L17.066 18.6257C15.2661 20.0828 12.9739 20.9557 10.4778 20.9557C4.69111 20.9557 0 16.2646 0 10.4778ZM10.4778 2.20586C5.90937 2.20586 2.20586 5.90937 2.20586 10.4778C2.20586 15.0463 5.90937 18.7498 10.4778 18.7498C15.0463 18.7498 18.7498 15.0463 18.7498 10.4778C18.7498 5.90937 15.0463 2.20586 10.4778 2.20586Z" fill="#CBCBCB"></path></svg>