<svg width="25" height="23" viewBox="0 0 25 23" fill="none" xmlns="http://www.w3.org/2000/svg">
<path d="M0.195413 0.499722C0.551635 -0.0158449 1.27357 -0.155161 1.8079 0.18855L7.04044 3.55439C7.2883 3.71383 7.46329 3.95897 7.52931 4.23926L10.2306 15.7074H20.0602L20.7442 13.4635H12.7908C12.1486 13.4635 11.628 12.9611 11.628 12.3415C11.628 11.7219 12.1486 11.2196 12.7908 11.2196H21.4282L22.2832 8.41472H12.7908C12.1486 8.41472 11.628 7.9124 11.628 7.29277C11.628 6.67314 12.1486 6.17082 12.7908 6.17082H23.8372C24.2037 6.17082 24.5487 6.33751 24.7682 6.62062C24.9878 6.90372 25.0561 7.27013 24.9527 7.60935L22.0458 17.1459C21.9002 17.6234 21.4461 17.9513 20.9302 17.9513H9.3024C8.7595 17.9513 8.28885 17.5888 8.16853 17.078L5.36439 5.17309L0.517911 2.05558C-0.0164216 1.71187 -0.160809 1.01529 0.195413 0.499722Z" fill="#CBCBCB"/>
<path d="M12.2094 21.0366C12.2094 22.121 11.2983 23 10.1745 23C9.05066 23 8.13962 22.121 8.13962 21.0366C8.13962 19.9522 9.05066 19.0732 10.1745 19.0732C11.2983 19.0732 12.2094 19.9522 12.2094 21.0366Z" fill="#CBCBCB"/>
<path d="M22.093 21.0366C22.093 22.121 21.182 23 20.0582 23C18.9343 23 18.0233 22.121 18.0233 21.0366C18.0233 19.9522 18.9343 19.0732 20.0582 19.0732C21.182 19.0732 22.093 19.9522 22.093 21.0366Z" fill="#CBCBCB"/>
</svg>
