<svg width="20" height="20" viewBox="0 0 20 20" fill="none" xmlns="http://www.w3.org/2000/svg">
<g clip-path="url(#clip0)">
<path d="M15.8424 17.67H14.4138C14.4138 15.26 12.3924 13.3 9.90593 13.3C7.4195 13.3 5.39879 15.2607 5.39879 17.67H3.97021C3.97021 14.4714 6.63379 11.8714 9.90664 11.8714C13.1788 11.8714 15.8424 14.4714 15.8424 17.67Z" fill="white"/>
<path d="M9.90689 11.4071C7.7476 11.4071 5.98975 9.64855 5.98975 7.48927C5.98903 5.32927 7.74689 3.57141 9.90689 3.57141C12.0676 3.57141 13.8255 5.32855 13.8255 7.48927C13.8255 9.64998 12.0676 11.4071 9.90689 11.4071ZM9.90689 4.99998C8.53403 4.99998 7.4176 6.11641 7.4176 7.48927C7.4176 8.86213 8.53403 9.97855 9.90689 9.97855C11.2805 9.97855 12.3969 8.86213 12.3969 7.48927C12.3969 6.11641 11.279 4.99998 9.90689 4.99998Z" fill="white"/>
</g>
<circle cx="10" cy="10" r="9.25" stroke="white" stroke-width="1.5"/>
<defs>
<clipPath id="clip0">
<rect width="14.0986" height="14.0986" fill="white" transform="translate(2.85693 3.57141)"/>
</clipPath>
</defs>
</svg>
