<svg width="20" height="20" viewBox="0 0 20 20" fill="none" xmlns="http://www.w3.org/2000/svg">
<path d="M5.70003 13.1685H17.5585C18.903 13.1685 20 12.1491 20 10.8995V6.26299C20 6.25888 20 6.25066 20 6.24655C20 6.23422 20 6.22599 20 6.21367C20 6.20544 20 6.19722 19.9956 6.189C19.9956 6.18078 19.9911 6.16845 19.9911 6.16022C19.9911 6.15201 19.9867 6.14378 19.9867 6.13557C19.9823 6.12734 19.9823 6.11912 19.9778 6.10679C19.9735 6.09857 19.9735 6.09035 19.9691 6.08213C19.9646 6.07391 19.9646 6.06569 19.9602 6.05747C19.9558 6.04925 19.9513 6.04102 19.9469 6.02869C19.9425 6.02047 19.938 6.01225 19.9336 6.00814C19.9292 5.99992 19.9248 5.9917 19.9204 5.98348C19.916 5.97526 19.9115 5.97115 19.9071 5.96292C19.9027 5.95471 19.8938 5.94648 19.8894 5.93827C19.885 5.93004 19.8806 5.92593 19.8718 5.91772C19.8673 5.90949 19.8585 5.90538 19.854 5.89716C19.8496 5.88894 19.8407 5.88483 19.8363 5.87661C19.832 5.86839 19.8231 5.86427 19.8187 5.86017C19.8098 5.85195 19.8054 5.84783 19.7965 5.83962C19.7877 5.83551 19.7833 5.82728 19.7744 5.82317C19.7656 5.81907 19.7567 5.81084 19.7478 5.80673C19.7391 5.80262 19.7346 5.79851 19.7258 5.7944C19.7169 5.79029 19.7081 5.78618 19.6992 5.77796C19.6904 5.77385 19.6816 5.76974 19.6727 5.76562C19.6638 5.76152 19.655 5.75741 19.6461 5.7533C19.6373 5.74918 19.6285 5.74508 19.6196 5.74097C19.6107 5.73686 19.6019 5.73686 19.5931 5.73274C19.5842 5.72863 19.5709 5.72452 19.5621 5.72452C19.5532 5.72452 19.5444 5.72042 19.54 5.72042C19.5267 5.7163 19.5179 5.7163 19.5046 5.7163C19.5002 5.7163 19.4958 5.71219 19.4869 5.71219L4.45713 3.78441V1.83607C4.45713 1.81552 4.45713 1.79497 4.45271 1.77852C4.45271 1.77442 4.4527 1.77031 4.44828 1.76208C4.44828 1.74975 4.44386 1.73743 4.44386 1.72509C4.43943 1.71276 4.43943 1.70454 4.43501 1.69221C4.43501 1.68398 4.43059 1.67987 4.43059 1.67166C4.42617 1.65932 4.42174 1.64699 4.41732 1.63466C4.41732 1.63055 4.4129 1.62233 4.4129 1.61822C4.40848 1.60589 4.40405 1.59767 4.39521 1.58533C4.39079 1.58123 4.39079 1.57301 4.38636 1.56889C4.38194 1.56068 4.37751 1.55245 4.36866 1.54423C4.36424 1.53601 4.35982 1.5319 4.3554 1.52368C4.35097 1.51546 4.34655 1.51135 4.34213 1.50312C4.33771 1.49491 4.32886 1.48668 4.32444 1.47847C4.32002 1.47436 4.31559 1.47024 4.31117 1.46613C4.30232 1.45792 4.29347 1.44969 4.28463 1.44147C4.2802 1.43736 4.27578 1.43325 4.27136 1.42914C4.26251 1.42092 4.25367 1.4127 4.2404 1.40447C4.23597 1.40037 4.22712 1.39626 4.2227 1.39215C4.21386 1.38393 4.20501 1.37982 4.19617 1.37159C4.1829 1.36338 4.16963 1.35515 4.16078 1.35104C4.15635 1.34693 4.15193 1.34693 4.14751 1.34282C4.12982 1.3346 4.10771 1.32638 4.09001 1.31816L0.830169 0.0439301C0.524966 -0.075272 0.175546 0.0562613 0.0472725 0.33988C-0.0809987 0.623498 0.0605415 0.948225 0.365733 1.06743L3.25846 2.2019V4.71747V5.11618V8.17433V10.9078V14.3605C3.25846 15.5114 4.18732 16.465 5.38599 16.6089C5.16926 16.9459 5.04098 17.3406 5.04098 17.7598C5.04098 18.9971 6.12465 20 7.45158 20C8.77857 20 9.86218 18.9929 9.86218 17.7598C9.86218 17.3487 9.74273 16.9582 9.53048 16.6294H14.9001C14.6878 16.9624 14.5684 17.3487 14.5684 17.7598C14.5684 18.9971 15.6521 20 16.979 20C18.306 20 19.3896 18.9929 19.3896 17.7598C19.3896 16.5267 18.306 15.5197 16.979 15.5197H5.70003C5.01002 15.5197 4.45271 14.9976 4.45271 14.3605V12.8561C4.81541 13.0534 5.24445 13.1685 5.70003 13.1685ZM8.67239 17.7557C8.67239 18.3805 8.1239 18.8861 7.45601 18.8861C6.78812 18.8861 6.23965 18.3764 6.23965 17.7557C6.23965 17.135 6.78812 16.6253 7.45601 16.6253C8.1239 16.6253 8.67239 17.1309 8.67239 17.7557ZM18.1998 17.7557C18.1998 18.3805 17.6513 18.8861 16.9834 18.8861C16.3155 18.8861 15.7671 18.3764 15.7671 17.7557C15.7671 17.135 16.3155 16.6253 16.9834 16.6253C17.6513 16.6253 18.1998 17.1309 18.1998 17.7557ZM17.5585 12.0587H5.70003C5.01002 12.0587 4.45271 11.5367 4.45271 10.8995V8.16611V5.10796V4.90244L18.8057 6.7398V10.8954C18.8057 11.5407 18.244 12.0587 17.5585 12.0587Z" fill="white"/>
</svg>
