<svg width="21" height="20" viewBox="0 0 21 20" fill="none" xmlns="http://www.w3.org/2000/svg">
<path d="M20.9466 5.88007C20.8974 4.81739 20.7169 4.08681 20.4584 3.45375C20.1917 2.78177 19.7814 2.18015 19.2438 1.68002C18.7186 1.17211 18.0826 0.777437 17.3851 0.527448C16.7164 0.281275 15.9531 0.109427 14.8371 0.0625734C13.7127 0.0117516 13.3558 0 10.5041 0C7.65239 0 7.29545 0.0117516 6.17525 0.0586054C5.05923 0.105459 4.29197 0.27746 3.62729 0.52348C2.92142 0.777437 2.28959 1.16814 1.76436 1.68002C1.23095 2.18015 0.816625 2.78574 0.553926 3.44993C0.295395 4.08681 0.114921 4.81342 0.0657146 5.87611C0.0123415 6.94672 0 7.2866 0 10.002C0 12.7174 0.0123415 13.0572 0.0615474 14.1239C0.110753 15.1866 0.291388 15.9172 0.549919 16.5502C0.816625 17.2222 1.23095 17.8238 1.76436 18.3239C2.28959 18.8319 2.92558 19.2265 3.62312 19.4765C4.29197 19.7227 5.05506 19.8945 6.17125 19.9414C7.29128 19.9884 7.64838 20 10.5001 20C13.3518 20 13.7087 19.9884 14.8289 19.9414C15.9449 19.8945 16.7122 19.7227 17.3769 19.4765C18.7885 18.9569 19.9045 17.8942 20.4502 16.5502C20.7086 15.9133 20.8892 15.1866 20.9385 14.1239C20.9877 13.0572 21 12.7174 21 10.002C21 7.2866 20.9958 6.94672 20.9466 5.88007ZM19.0552 14.0458C19.01 15.0225 18.8377 15.55 18.6941 15.9016C18.3411 16.7729 17.6149 17.4644 16.6999 17.8005C16.3306 17.9372 15.7726 18.1013 14.7509 18.1442C13.643 18.1912 13.3107 18.2028 10.5083 18.2028C7.70576 18.2028 7.36934 18.1912 6.26549 18.1442C5.2397 18.1013 4.68578 17.9372 4.31649 17.8005C3.86114 17.6402 3.44665 17.3863 3.11023 17.0542C2.76146 16.7299 2.49475 16.3391 2.32646 15.9056C2.18285 15.5539 2.01055 15.0225 1.96551 14.0497C1.91614 12.9948 1.90396 12.6783 1.90396 10.0098C1.90396 7.34124 1.91614 7.02089 1.96551 5.96997C2.01055 4.99321 2.18285 4.46576 2.32646 4.11413C2.49475 3.68039 2.76146 3.28587 3.11439 2.96537C3.45483 2.63327 3.86514 2.37932 4.32066 2.21922C4.68994 2.08247 5.24804 1.91841 6.26966 1.87537C7.37751 1.82852 7.70993 1.81677 10.5123 1.81677C13.3189 1.81677 13.6512 1.82852 14.755 1.87537C15.7808 1.91841 16.3347 2.08247 16.704 2.21922C17.1594 2.37932 17.5739 2.63327 17.9103 2.96537C18.2591 3.28968 18.5258 3.68039 18.6941 4.11413C18.8377 4.46576 19.01 4.99702 19.0552 5.96997C19.1044 7.02486 19.1167 7.34124 19.1167 10.0098C19.1167 12.6783 19.1044 12.9909 19.0552 14.0458Z" fill="white" fill-opacity="0.6"/>
<path d="M10.5041 4.86423C7.52527 4.86423 5.10842 7.16541 5.10842 10.002C5.10842 12.8385 7.52527 15.1397 10.5041 15.1397C13.483 15.1397 15.8997 12.8385 15.8997 10.002C15.8997 7.16541 13.483 4.86423 10.5041 4.86423ZM10.5041 13.3347C8.57158 13.3347 7.00404 11.8422 7.00404 10.002C7.00404 8.1617 8.57158 6.66924 10.5041 6.66924C12.4367 6.66924 14.0041 8.1617 14.0041 10.002C14.0041 11.8422 12.4367 13.3347 10.5041 13.3347Z" fill="white" fill-opacity="0.6"/>
<path d="M17.3729 4.66111C17.3729 5.32347 16.8088 5.86054 16.1131 5.86054C15.4174 5.86054 14.8534 5.32347 14.8534 4.66111C14.8534 3.99859 15.4174 3.46168 16.1131 3.46168C16.8088 3.46168 17.3729 3.99859 17.3729 4.66111Z" fill="white" fill-opacity="0.6"/>
</svg>
