<svg width="104" height="41" viewBox="0 0 104 41" fill="none" xmlns="http://www.w3.org/2000/svg">
<path d="M26.277 30.8382C25.711 29.3008 25.1646 27.7417 24.6181 26.2043C23.9155 26.2693 23.2128 26.3559 22.5102 26.4425C22.2565 30.0803 22.0028 33.7181 21.7686 37.3342C22.4907 37.2476 23.2128 37.161 23.935 37.0744C24.0521 35.2772 24.1497 33.4799 24.2668 31.6827C24.5986 32.9386 24.9108 34.1945 25.2426 35.4287L26.7845 35.2555C27.2724 33.913 27.7408 32.5488 28.2288 31.2063C28.1312 33.0035 28.0336 34.8224 27.936 36.6197C28.6581 36.5547 29.3803 36.4898 30.1024 36.4248C30.2781 32.8303 30.4537 29.2142 30.6489 25.5981C29.8877 25.663 29.1265 25.728 28.3654 25.7929C27.6823 27.5036 26.9797 29.1709 26.277 30.8382Z" fill="#FD0A04"/>
<path d="M34.2782 25.3599C33.3218 28.9977 32.346 32.6571 31.3701 36.3165V36.3382C32.2289 36.2732 33.1071 36.2083 33.9854 36.1217C34.0049 36.035 34.044 35.8835 34.083 35.7102C34.122 35.537 34.1611 35.3421 34.1806 35.1473L34.2782 34.6276C34.2977 34.476 34.3172 34.3677 34.3367 34.3028C35.0003 34.2595 35.6834 34.2162 36.3665 34.1728C36.4251 34.5626 36.4641 34.9091 36.4836 35.2122C36.5031 35.5154 36.5422 35.7536 36.5617 35.9484C37.44 35.8835 38.2987 35.8402 39.177 35.7969V35.7752C38.4549 32.2457 37.7718 28.7162 37.0887 25.1866C36.1323 25.2516 35.215 25.2949 34.2782 25.3599ZM34.7466 32.5055L35.215 30.3185C35.2736 30.0154 35.3321 29.7122 35.3907 29.4524C35.4492 29.1925 35.4882 28.9544 35.5468 28.7378C35.6444 29.539 35.742 30.2536 35.82 30.8815C35.8981 31.5095 35.9762 32.0075 36.0347 32.4189L34.7466 32.5055Z" fill="#FD0A04"/>
<path d="M48.136 25.4898C48.097 25.3382 47.9994 25.2083 47.9018 25.1C47.8042 24.9917 47.6676 24.9268 47.531 24.8835C47.4334 24.8618 47.3553 24.8402 47.2577 24.8185C47.1602 24.8185 47.0626 24.7969 46.9455 24.8185H46.7113C45.2865 24.8402 43.8422 24.8835 42.4175 24.9268H42.1052H41.871C41.7734 24.9268 41.6758 24.9485 41.5782 24.9485C41.4806 24.9701 41.4026 24.9918 41.305 25.0134C41.2269 25.0351 41.1488 25.0784 41.0903 25.1217C41.0317 25.165 40.9732 25.2083 40.9146 25.2733C40.8561 25.3166 40.817 25.3815 40.778 25.4465C40.739 25.5114 40.6999 25.5764 40.6609 25.663C40.6024 25.8362 40.5828 26.0311 40.5633 26.226C40.4853 28.8244 40.4267 31.4228 40.3486 34.0213V34.2378V34.476C40.3486 34.6709 40.3682 34.8441 40.4072 35.0173C40.4462 35.0823 40.4657 35.1473 40.5048 35.2122C40.5438 35.2772 40.5828 35.3421 40.6414 35.3854C40.6999 35.4287 40.7585 35.4721 40.817 35.5154C40.8951 35.5587 40.9537 35.5803 41.0317 35.602C41.1293 35.6236 41.2074 35.6453 41.305 35.6453C41.4026 35.6453 41.5001 35.6453 41.6173 35.6453H41.8905H41.9881C43.608 35.5803 45.2084 35.537 46.8284 35.4937C46.9455 35.4937 47.043 35.4937 47.1406 35.4721C47.2382 35.4504 47.3358 35.4288 47.4334 35.4071C47.57 35.3638 47.7066 35.2772 47.8237 35.1689C47.9994 34.9957 48.097 34.7791 48.136 34.5193C48.1555 34.4327 48.1555 34.3244 48.1555 34.2378C48.1555 33.8697 48.1555 33.5232 48.1555 33.1551C48.1555 32.8303 48.1555 32.5272 48.1555 32.2024H47.4919H47.004L46.1453 32.224H45.6378V32.8953V33.4366H45.345H45.1304C44.4473 33.4583 43.7446 33.4799 43.0615 33.5016H42.8468C42.8664 32.5272 42.8859 31.5744 42.9054 30.6C42.9249 29.9071 42.9249 29.2142 42.9444 28.5429L42.9639 27.6118L42.9835 26.9406C43.9008 26.9189 44.7986 26.8756 45.7159 26.854C45.7159 27.0488 45.7159 27.2654 45.7159 27.4603V28.0449H46.3404H46.8088L47.6286 28.0232H48.1555C48.1555 27.9366 48.1555 27.8717 48.1555 27.7851V27.6551C48.1555 27.5469 48.1555 27.4386 48.1555 27.3303V26.8106C48.1555 26.7457 48.1555 26.7024 48.1555 26.6374C48.1555 26.5725 48.1555 26.5292 48.1555 26.4642C48.1555 26.3992 48.1555 26.3126 48.1555 26.2477C48.1555 26.1827 48.1555 26.0961 48.1555 26.0095C48.1555 25.9012 48.1555 25.8146 48.136 25.728C48.175 25.6847 48.1555 25.5764 48.136 25.4898Z" fill="#FD0A04"/>
<path d="M55.1227 24.8185C55.1423 26.2043 55.1423 27.5902 55.1618 28.976C54.0298 28.9543 52.8978 28.9544 51.7658 28.9544C51.7658 27.5685 51.7658 26.1827 51.7658 24.7969C50.9656 24.7969 50.1654 24.7969 49.3457 24.7969C49.3261 28.3697 49.3066 31.9425 49.2871 35.5154C50.1068 35.5154 50.9461 35.5154 51.7658 35.5154C51.7658 34.0213 51.7658 32.5488 51.7658 31.0547C52.8978 31.0547 54.0298 31.0547 55.1813 31.098C55.2008 32.5921 55.2008 34.0646 55.2203 35.5587C56.0596 35.5803 56.8793 35.602 57.7185 35.6236C57.6795 32.0508 57.621 28.478 57.5819 24.8835C56.7622 24.8402 55.9425 24.8185 55.1227 24.8185Z" fill="#FD0A04"/>
<path d="M58.8115 24.9052C58.8896 28.478 58.9481 32.0724 59.0262 35.6453L60.6461 35.7102L61.8172 35.7535C61.7196 32.1807 61.622 28.5862 61.5244 25.0134C60.6071 24.9485 59.7093 24.9268 58.8115 24.9052Z" fill="#FD0A04"/>
<path d="M68.3943 25.3816C68.4724 27.2871 68.5504 29.1709 68.648 31.0764C67.3404 29.0843 66.0327 27.1138 64.7641 25.165C64.0615 25.1217 63.3589 25.1001 62.6562 25.0568C62.7538 28.6512 62.8709 32.2241 62.9685 35.8185C63.7882 35.8618 64.5885 35.9052 65.4082 35.9485C65.3496 34.043 65.2716 32.1591 65.213 30.2536C66.5207 32.2241 67.8478 34.1945 69.1945 36.2083C69.9166 36.2733 70.6388 36.3166 71.3609 36.3815C71.1853 32.7871 71.0096 29.1709 70.834 25.5764C70.0142 25.4898 69.1945 25.4249 68.3943 25.3816Z" fill="#FD0A04"/>
<path d="M74.6981 34.5843C74.6395 33.6748 74.6005 32.7654 74.5419 31.8559C75.6739 31.9642 76.7864 32.0725 77.9184 32.2024C77.8794 31.5961 77.8404 30.9898 77.8013 30.3835C76.6888 30.2536 75.5568 30.1453 74.4444 30.037C74.4053 29.3441 74.3663 28.6512 74.3273 27.9583C75.5373 28.0666 76.7474 28.1965 77.9575 28.3264C77.9184 27.6118 77.8599 26.9189 77.8208 26.2044C75.8106 25.9878 73.8003 25.7929 71.7705 25.6414C71.9657 29.2575 72.1413 32.852 72.317 36.4681C74.3858 36.6413 76.4546 36.8579 78.5039 37.0961C78.4649 36.4031 78.4259 35.6886 78.3673 34.9957C77.1573 34.8224 75.9277 34.6925 74.6981 34.5843Z" fill="#FD0A04"/>
<g opacity="0.25">
<path opacity="0.5" d="M22.2363 36.7929C22.451 33.5233 22.6852 30.1886 22.9194 26.8756L24.3442 26.7241C24.8516 28.1532 25.3591 29.604 25.886 31.0331L26.6667 31.0548C27.3303 29.4741 28.0134 27.8717 28.6575 26.291L30.1993 26.1611C30.0237 29.539 29.848 32.852 29.6919 36.0134L28.4038 36.1217C28.4818 34.4977 28.5794 32.8737 28.677 31.2496L27.8573 31.0548C27.4084 32.3107 26.9595 33.5666 26.5106 34.8225L25.5738 34.9307C25.281 33.8048 24.9883 32.6788 24.6955 31.5528L23.8563 31.6611C23.7587 33.3284 23.6416 34.974 23.544 36.6414L22.2363 36.7929Z" fill="url(#paint0_linear)"/>
<path opacity="0.5" d="M31.9561 35.8185C32.8734 32.3973 33.7712 29.041 34.6104 25.8146C35.313 25.7713 36.0156 25.728 36.7183 25.6847C37.3233 28.8677 37.9674 32.1158 38.6309 35.3638L36.9329 35.4721C36.9329 35.3855 36.9134 35.2772 36.8939 35.1689C36.8549 34.8658 36.8158 34.5193 36.7768 34.1295L36.7183 33.6965L36.3279 33.7181C35.6448 33.7614 34.9812 33.8047 34.2981 33.8481L33.9858 33.8697L33.9078 34.1945C33.8883 34.2595 33.8687 34.3677 33.8297 34.541L33.7321 35.0606C33.6931 35.2555 33.615 35.667 33.615 35.6886L31.9561 35.8185ZM35.1178 28.6296C35.0593 28.8461 35.0203 29.0843 34.9617 29.3441C34.9032 29.604 34.8446 29.9071 34.7861 30.2103C34.6299 30.9465 34.181 33.0252 34.181 33.0252L34.7665 32.9819L36.0547 32.8953L36.5231 32.8736L36.445 32.354C36.3865 31.9425 36.3084 31.4445 36.2303 30.8166C36.1523 30.2103 36.0547 29.4957 35.9571 28.6728L35.1178 28.6296Z" fill="url(#paint1_linear)"/>
<path opacity="0.5" d="M41.4809 35.2339H41.3248C41.2663 35.2339 41.2077 35.2122 41.1491 35.1905H41.1296H41.1101C41.0711 35.1905 41.0516 35.1689 41.0125 35.1472C40.9735 35.1256 40.9345 35.1039 40.9149 35.0606C40.8954 35.039 40.8759 35.0173 40.8759 35.0173C40.8564 34.974 40.8369 34.9307 40.8174 34.8874C40.7978 34.7575 40.7783 34.6492 40.7783 34.5193L40.7978 34.0646C40.8759 31.4661 40.9345 28.8677 41.0125 26.2909C41.0125 26.161 41.032 26.0311 41.0711 25.9012C41.0906 25.8579 41.1101 25.7929 41.1491 25.7496C41.1687 25.728 41.1882 25.6847 41.2077 25.663C41.2467 25.6197 41.2858 25.598 41.3248 25.5764C41.3638 25.5547 41.3834 25.5331 41.4224 25.5331H41.4419H41.4614C41.52 25.5114 41.5785 25.4898 41.6371 25.4898C41.7151 25.4898 41.8127 25.4681 41.8908 25.4681L42.4178 25.4465C43.8425 25.4032 45.2868 25.3598 46.7115 25.3382H47.0043C47.0824 25.3382 47.1409 25.3382 47.219 25.3382C47.2775 25.3382 47.3361 25.3599 47.3946 25.3815H47.4142C47.4727 25.4032 47.5508 25.4248 47.5898 25.4898C47.6484 25.5547 47.6874 25.6197 47.7264 25.7063C47.746 25.7496 47.7655 25.8146 47.7655 25.8579C47.7655 25.9445 47.785 26.0095 47.7655 26.0961L47.746 27.6551L46.8091 27.6768L46.126 27.6984L46.1455 26.5075H45.6967C44.7793 26.5291 43.862 26.5508 42.9447 26.5941L42.5349 26.6157L42.3787 34.1295L43.0423 34.1079C43.7254 34.0862 44.428 34.0646 45.1111 34.0429L46.0284 34.0213L46.048 32.8303L47.4727 32.8087H47.6874L47.6679 34.3461C47.6679 34.4327 47.6679 34.4976 47.6484 34.5843C47.6484 34.6276 47.6289 34.6709 47.6093 34.7142C47.5898 34.8008 47.5313 34.8657 47.4727 34.9307C47.3946 34.9957 47.3166 35.039 47.2385 35.0823C47.18 35.1039 47.1019 35.1256 47.0433 35.1256C46.9458 35.1256 46.8677 35.1472 46.7701 35.1472C45.1697 35.1689 43.5498 35.2339 41.9298 35.2988L41.559 35.3205L41.4809 35.2339Z" fill="url(#paint2_linear)"/>
<path opacity="0.5" d="M57.2895 35.1039L55.6501 35.0606L55.611 30.6H55.2012C54.0496 30.5784 52.8981 30.5784 51.7856 30.5567H51.3563V35.039H51.2587H49.7363C49.7558 31.791 49.7754 28.5213 49.7754 25.2733H51.2782H51.3172V29.4307H51.7466C52.8591 29.4307 53.9911 29.4524 55.1426 29.4524H55.5915L55.5525 25.2949L57.1529 25.3382C57.1919 28.5862 57.2505 31.8559 57.2895 35.1039Z" fill="url(#paint3_linear)"/>
<path opacity="0.5" d="M60.6465 35.2122L59.4364 35.1689C59.3778 31.8992 59.3193 28.6512 59.2412 25.3815C59.8658 25.4032 60.4708 25.4248 61.0953 25.4465C61.1929 28.7162 61.271 31.9642 61.3686 35.2339L60.6465 35.2122Z" fill="url(#paint4_linear)"/>
<path opacity="0.5" d="M70.8928 35.8402L69.4095 35.7319C68.1018 33.8047 66.8137 31.8776 65.5451 29.9504L64.7644 30.2536C64.8229 31.9858 64.8815 33.6965 64.9401 35.4287L63.3592 35.3421C63.2616 32.0725 63.164 28.8028 63.0664 25.5547L64.5107 25.6197C65.7012 27.4386 66.9698 29.3658 68.2775 31.3579L69.0582 31.0547C68.9801 29.3441 68.902 27.6118 68.8435 25.9012L70.4049 26.0095C70.5805 29.2791 70.7367 32.5705 70.8928 35.8402Z" fill="url(#paint5_linear)"/>
<path opacity="0.5" d="M78.0554 36.5331C76.2793 36.3382 74.5032 36.165 72.7272 35.9917C72.571 32.7004 72.3954 29.3874 72.2197 26.1394C73.9372 26.291 75.6743 26.4425 77.4113 26.6158L77.4894 27.7851C76.4354 27.6768 75.3815 27.5685 74.3471 27.4819L73.8592 27.4386L74.0348 30.4917L74.4057 30.5351C75.3815 30.6217 76.3964 30.7299 77.3918 30.8382C77.4113 31.1197 77.4308 31.4012 77.4503 31.6827C76.4745 31.5744 75.5181 31.4878 74.5813 31.4012L74.0934 31.3579L74.2885 35.039L74.6594 35.0823C75.7523 35.1906 76.8843 35.2988 77.9773 35.4287L78.0554 36.5331Z" fill="url(#paint6_linear)"/>
</g>
<path d="M33.4778 21.787C34.278 21.7221 35.0782 21.6788 35.8784 21.6355C35.9174 20.8343 35.937 20.0548 35.976 19.2536C36.1907 14.0351 36.4054 8.79494 36.6201 3.5548C36.6591 2.75362 36.6786 1.97409 36.7177 1.17291C35.9565 1.21622 35.1953 1.23787 34.4537 1.28118C31.448 1.43275 28.4424 1.62763 25.4367 1.86582C24.6755 1.93078 23.9339 1.99575 23.1727 2.06071C23.1142 2.86189 23.0361 3.68472 22.9775 4.4859C22.5677 9.83431 22.1773 15.1394 21.787 20.4445C21.7284 21.2457 21.6699 22.0469 21.6113 22.8481C22.4115 22.7615 23.1922 22.6748 23.9924 22.5882C27.1347 22.2851 30.316 22.0036 33.4778 21.787ZM27.2128 5.76345C28.8522 5.63353 30.4721 5.52527 32.1116 5.417C31.8969 9.59613 31.6627 13.7969 31.448 17.976L30.921 18.0193C29.7305 18.1059 28.5399 18.2142 27.3494 18.3225L26.8029 18.3658L26.393 18.4091C26.6663 14.1867 26.9395 9.98588 27.2128 5.76345Z" fill="white"/>
<path d="M43.5683 0.934692C41.9679 0.977999 40.3479 1.02131 38.7475 1.08627C38.4938 7.90712 38.2596 14.7063 38.0254 21.5055C39.7429 21.4189 41.4409 21.3539 43.1584 21.289C43.2755 14.5114 43.4121 7.73389 43.5683 0.934692Z" fill="white"/>
<path d="M55.2785 21.2024C55.2785 19.8382 55.2785 18.4741 55.2785 17.1099C53.3073 17.0882 51.3165 17.0666 49.3453 17.0882C49.3648 11.6749 49.3843 6.26149 49.4234 0.848114C47.9791 0.848114 46.5348 0.869765 45.0906 0.913072C44.9539 7.69062 44.8368 14.4898 44.7197 21.2674C48.2328 21.1591 51.7654 21.1374 55.2785 21.2024Z" fill="white"/>
<path d="M61.7002 21.354C61.5246 14.5765 61.3294 7.77725 61.1342 0.978049C59.5338 0.934742 57.9139 0.891435 56.2939 0.869781C56.3915 7.64733 56.4696 14.4249 56.5672 21.2024C58.2652 21.2457 59.9827 21.289 61.7002 21.354Z" fill="white"/>
<path d="M68.2775 21.7004C68.1214 18.0843 67.9653 14.4898 67.8091 10.8737C70.2293 14.6197 72.6884 18.3874 75.2061 22.2201C76.5333 22.3284 77.8605 22.4583 79.1876 22.6099C78.7388 15.724 78.2508 8.81657 77.7434 1.86579C76.2991 1.75752 74.8548 1.64925 73.391 1.54098C73.6057 5.17878 73.8399 8.79492 74.0546 12.4111C71.615 8.62169 69.2339 4.85398 66.8918 1.17288C65.6427 1.10792 64.3936 1.06461 63.125 1.0213C63.3592 7.82051 63.5739 14.6197 63.7886 21.4189C65.2914 21.5272 66.7747 21.6138 68.2775 21.7004Z" fill="white"/>
<g opacity="0.5">
<path opacity="0.5" d="M22.5488 20.5095C22.9196 15.3344 23.3099 9.98594 23.7393 4.5509L23.8759 2.86193L25.4763 2.732C28.4625 2.49381 31.5072 2.29894 34.4738 2.14736L35.8985 2.0824L35.84 3.51153C35.6253 8.81664 35.4106 14.1001 35.1959 19.2103L35.1374 20.8127L33.4394 20.921C30.2971 21.1375 27.0963 21.419 23.915 21.7438L22.4512 21.8954L22.5488 20.5095ZM32.0732 4.5509C30.4337 4.65917 28.7747 4.76743 27.1548 4.89736L26.4717 4.94067L26.4327 5.69854C26.1594 9.96428 25.8862 14.2084 25.6325 18.3225L25.5739 19.3186L27.4476 19.1454C28.6186 19.0371 29.8287 18.9505 30.9997 18.8639L32.2098 18.7773L32.2488 18.0194C32.4635 13.9485 32.6782 9.72609 32.9124 5.482L32.9709 4.50759L32.0732 4.5509Z" fill="url(#paint7_linear)"/>
<path opacity="0.5" d="M38.8262 20.6178C39.0409 14.5548 39.2556 8.29694 39.4898 1.93081C40.5827 1.8875 41.6757 1.86585 42.7687 1.82254C42.632 8.0804 42.4954 14.3383 42.3783 20.4662C41.2073 20.5095 40.0167 20.5528 38.8262 20.6178Z" fill="url(#paint8_linear)"/>
<path opacity="0.5" d="M45.5205 20.3796C45.6181 14.3166 45.7352 8.05874 45.8523 1.75757C46.7696 1.73591 47.7064 1.73592 48.6237 1.71426C48.6042 6.84615 48.5847 11.9564 48.5652 17.0666V17.9327H49.3459C50.0875 17.9327 50.8097 17.9327 51.5513 17.9327C52.5272 17.9327 53.5226 17.9327 54.4984 17.9544V20.3146C53.5226 20.3146 52.5272 20.293 51.5513 20.293C49.5411 20.293 47.5308 20.3146 45.5205 20.3796Z" fill="url(#paint9_linear)"/>
<path opacity="0.5" d="M60.8996 20.4662C59.7091 20.4229 58.5185 20.3796 57.3475 20.3579C57.2694 14.1434 57.1913 7.95045 57.0938 1.75754C58.1867 1.77919 59.2797 1.80085 60.3726 1.8225C60.5483 8.10203 60.7239 14.3599 60.8996 20.4662Z" fill="url(#paint10_linear)"/>
<path opacity="0.5" d="M78.3481 21.6572C77.4308 21.5706 76.533 21.4839 75.6352 21.3973C72.9223 17.2832 70.5607 13.667 68.4528 10.3757L67.0476 10.917C67.1842 14.2084 67.3404 17.4997 67.477 20.7694C66.5011 20.7044 65.5448 20.6611 64.5884 20.6178C64.3933 14.5765 64.1981 8.29697 63.9834 1.93085C64.8226 1.9525 65.6814 1.99581 66.5206 2.03911C68.609 5.37375 70.873 8.92492 73.4492 12.9525L74.8545 12.3895C74.6593 9.14145 74.4641 5.80682 74.269 2.49384C75.1863 2.5588 76.1231 2.62376 77.0404 2.68872C77.4893 9.1198 77.9382 15.4859 78.3481 21.6572Z" fill="url(#paint11_linear)"/>
</g>
<path d="M3.6754 4.31267C2.48485 14.9878 1.39189 25.4898 0.435547 35.8185C3.20699 37.3559 6.01747 38.9366 8.84746 40.539C8.06678 38.6118 7.3056 36.663 6.56395 34.7358C9.43298 34.2595 12.3215 33.8047 15.2491 33.3933C16.4397 33.2201 17.6107 33.0685 18.8012 32.9169C18.8793 31.726 18.9769 30.5134 19.055 29.3225C19.2306 26.789 19.4258 24.2555 19.621 21.7221C19.66 21.1807 19.6405 20.6178 19.6014 20.0764C19.5624 19.3835 19.3672 18.9071 19.0159 18.604C18.6841 18.2575 18.2938 17.9977 17.8644 17.8461C17.4155 17.6729 16.9276 17.478 16.4201 17.2615C16.8105 16.98 17.2008 16.6768 17.5912 16.352C17.9815 16.0272 18.4694 15.6375 19.0745 15.1394C19.621 14.6847 20.0113 14.0134 20.1284 13.2772C20.226 12.5627 20.3041 11.9347 20.3431 11.3717C20.4797 9.57447 20.6359 7.77722 20.7725 5.97998C20.8701 4.74573 20.9676 3.48983 21.0848 2.25558C19.9723 2.36385 18.8598 2.47212 17.7473 2.58039C13.0437 3.03511 8.35953 3.61976 3.6754 4.31267ZM12.4581 27.915C10.7992 28.1532 9.15974 28.413 7.50078 28.6729C7.73498 26.0961 7.98871 23.4977 8.22291 20.8993L9.15974 20.7693L10.7211 20.5528L12.2825 20.3363L13.1803 20.2063C12.9461 22.7615 12.6924 25.3382 12.4581 27.915ZM13.6292 15.0095C11.9897 15.226 10.3698 15.4426 8.74988 15.6808C8.94505 13.6453 9.15974 11.6099 9.37443 9.55281C10.9748 9.33628 12.5948 9.11974 14.2147 8.92486C14.0195 10.9603 13.8244 12.9957 13.6292 15.0095Z" fill="white"/>
<path opacity="0.5" d="M7.26717 38.6552C5.27642 37.5292 3.26615 36.4032 1.27539 35.2989C2.15366 25.7497 3.20759 15.5942 4.37863 5.09223C8.82855 4.44263 13.337 3.90129 17.8065 3.44656C18.6067 3.35995 19.4264 3.27333 20.2071 3.20837C20.129 4.11782 20.0509 5.00562 19.9924 5.91506C19.8558 7.7123 19.6996 9.5312 19.563 11.3284C19.524 11.8698 19.4459 12.4977 19.3483 13.1906C19.2507 13.7103 18.997 14.1867 18.6067 14.4899C18.0212 14.9662 17.5137 15.356 17.1234 15.6808C16.733 16.0056 16.3817 16.2871 15.9914 16.5686L16.128 18.106C16.6549 18.3442 17.1429 18.5391 17.6308 18.7123C17.9431 18.8206 18.2358 19.0154 18.47 19.2753L18.5091 19.3186L18.5481 19.3619C18.7433 19.5135 18.8018 19.9032 18.8214 20.1847C18.8604 20.6828 18.8799 21.2024 18.8409 21.7005C18.6457 24.2339 18.47 26.7674 18.2749 29.3009C18.1968 30.2536 18.1383 31.228 18.0602 32.1808C17.0843 32.3107 16.1085 32.4406 15.1326 32.5705C12.3807 32.9603 9.53117 33.3934 6.44745 33.913L5.45207 34.0863L5.86193 35.1257C6.34986 36.3382 6.81828 37.5292 7.26717 38.6552ZM12.1855 19.4485L10.6241 19.665L9.06276 19.9032L7.5209 20.1414L7.46234 20.8127C7.20862 23.4328 6.97442 26.0528 6.72069 28.5863L6.62311 29.6906L7.61848 29.539C9.27745 29.2792 10.9559 29.0194 12.5563 28.7812L13.1809 28.6946L13.2394 28.0016C13.4736 25.4682 13.7079 22.8698 13.9616 20.2713L14.0592 19.1887L12.1855 19.4485ZM14.1177 8.08041C12.5173 8.2753 10.8779 8.49183 9.27745 8.70836L8.67241 8.79498L8.61386 9.46624C8.39917 11.5233 8.204 13.5588 7.98931 15.5942L7.87221 16.6985L8.86758 16.5469C10.4875 16.3087 12.127 16.0922 13.7469 15.8757L14.3714 15.7891L14.43 15.0962C14.6056 13.0824 14.8008 11.0469 14.996 9.01151L15.0936 7.95049L14.1177 8.08041Z" fill="url(#paint12_linear)"/>
<path d="M102.979 35.8619H102.999V35.8402C102.882 34.6493 102.765 33.4367 102.648 32.2457C102.394 29.6473 102.121 27.0489 101.867 24.4288H101.828C101.652 22.7398 101.477 21.0292 101.281 19.3186C98.1001 18.7772 94.8798 18.2792 91.6594 17.8245C91.8156 19.5135 91.9717 21.1808 92.1278 22.8697C93.1622 23.0213 94.2162 23.1729 95.2506 23.3461C95.4262 25.1434 95.5824 26.919 95.758 28.6945C93.2989 28.3048 90.8202 27.915 88.3415 27.5902C87.834 21.3323 87.2876 15.0528 86.7411 8.73C89.1417 9.01149 91.5228 9.31465 93.9039 9.63945C94.021 10.7871 94.1381 11.9564 94.2552 13.104C96.4411 13.4072 98.6075 13.7536 100.774 14.1001C100.423 10.852 100.052 7.60402 99.681 4.33434C98.5685 4.18276 97.4755 4.00953 96.3631 3.85796L96.1289 3.8363C91.796 3.25166 87.4632 2.75363 83.1109 2.34221C81.9984 2.23394 80.8859 2.12568 79.7734 2.03906C79.871 3.23001 79.9491 4.42095 80.0467 5.61189C80.6517 13.4721 81.2177 21.289 81.7447 29.0843C81.8227 30.2753 81.9008 31.4445 81.9789 32.6355C83.1694 32.7871 84.36 32.9386 85.5505 33.0902C89.3564 33.5882 93.1427 34.1512 96.89 34.8008C96.1093 36.728 95.3482 38.6552 94.587 40.5823C97.417 38.98 100.227 37.3993 102.979 35.8619Z" fill="white"/>
<path opacity="0.5" d="M96.187 38.6984C96.6359 37.5724 97.0848 36.3815 97.5923 35.1256L97.9826 34.0862L96.9872 33.913C93.0643 33.2634 89.2389 32.6787 85.6087 32.2024C84.6328 32.0725 83.6375 31.9425 82.6811 31.8343C82.6226 30.9032 82.5445 29.9504 82.4859 29.0193C81.9785 21.4622 81.393 13.5587 80.7879 5.52524C80.7294 4.68075 80.6513 3.81461 80.5928 2.97012C81.393 3.03508 82.2127 3.1217 83.0129 3.18666C87.3262 3.59808 91.6981 4.0961 95.9918 4.68075L96.226 4.7024C97.1238 4.83233 98.0412 4.96225 98.9389 5.09217C99.2512 7.79886 99.544 10.4622 99.8367 13.0607C98.1973 12.8008 96.5578 12.541 94.9184 12.3028C94.8208 11.3717 94.7232 10.4406 94.6256 9.50949L94.5476 8.83823L93.9425 8.75161C91.5614 8.42681 89.1413 8.12366 86.7602 7.84216L85.8039 7.7339L85.9015 8.79492C86.4675 15.226 87.0139 21.5705 87.5019 27.6551L87.5604 28.348L88.185 28.4347C90.6051 28.7595 93.0838 29.1492 95.582 29.539L96.5774 29.6906L96.4798 28.5862C96.3236 26.8106 96.148 25.0134 95.9723 23.2378L95.9138 22.5666L95.3478 22.4799C94.5281 22.35 93.6693 22.2201 92.8301 22.0902C92.7325 21.0075 92.6349 19.9032 92.5373 18.8205C95.1721 19.2103 97.8655 19.6217 100.578 20.0764C100.735 21.5705 100.891 23.0429 101.047 24.537L101.105 25.1866H101.144C101.398 27.6118 101.632 30.0154 101.867 32.3323C101.964 33.3283 102.062 34.3244 102.159 35.3205C100.188 36.4681 98.1778 37.5724 96.187 38.6984Z" fill="url(#paint13_linear)"/>
<path d="M26.4714 30.8382C25.9054 29.3008 25.3589 27.7417 24.8124 26.2043C24.1098 26.2693 23.4072 26.3559 22.7045 26.4425C22.4508 30.0803 22.1971 33.7181 21.9629 37.3342C22.685 37.2476 23.4072 37.161 24.1293 37.0744C24.2464 35.2772 24.344 33.4799 24.4611 31.6827C24.7929 32.9386 25.1052 34.1945 25.437 35.4287L26.9788 35.2555C27.4667 33.913 27.9352 32.5488 28.4231 31.2063C28.3255 33.0035 28.2279 34.8224 28.1303 36.6197C28.8525 36.5547 29.5746 36.4898 30.2967 36.4248C30.4724 32.8303 30.648 29.2142 30.8432 25.5981C30.082 25.663 29.3209 25.728 28.5597 25.7929C27.8766 27.5036 27.174 29.1709 26.4714 30.8382Z" fill="#FD0A04"/>
<path d="M34.4735 25.3599C33.5172 28.9977 32.5413 32.6571 31.5654 36.3165V36.3382C32.4242 36.2732 33.3025 36.2083 34.1807 36.1217C34.2003 36.035 34.2393 35.8835 34.2783 35.7102C34.3174 35.537 34.3564 35.3421 34.3759 35.1473L34.4735 34.6276C34.493 34.476 34.5125 34.3677 34.532 34.3028C35.1956 34.2595 35.8787 34.2162 36.5618 34.1728C36.6204 34.5626 36.6594 34.9091 36.6789 35.2122C36.6985 35.5154 36.7375 35.7536 36.757 35.9484C37.6353 35.8835 38.494 35.8402 39.3723 35.7969V35.7752C38.6502 32.2457 37.9671 28.7162 37.284 25.1866C36.3276 25.2516 35.4103 25.2949 34.4735 25.3599ZM34.9419 32.5055L35.4103 30.3185C35.4689 30.0154 35.5274 29.7122 35.586 29.4524C35.6445 29.1925 35.6836 28.9544 35.7421 28.7378C35.8397 29.539 35.9373 30.2536 36.0154 30.8815C36.0934 31.5095 36.1715 32.0075 36.23 32.4189L34.9419 32.5055Z" fill="#FD0A04"/>
<path d="M48.3303 25.4898C48.2913 25.3382 48.1937 25.2083 48.0961 25.1C47.9985 24.9917 47.8619 24.9268 47.7253 24.8835C47.6277 24.8618 47.5497 24.8402 47.4521 24.8185C47.3545 24.8185 47.2569 24.7969 47.1398 24.8185H46.9056C45.4808 24.8402 44.0366 24.8835 42.6118 24.9268H42.2995H42.0653C41.9677 24.9268 41.8701 24.9485 41.7726 24.9485C41.675 24.9701 41.5969 24.9918 41.4993 25.0134C41.4212 25.0351 41.3432 25.0784 41.2846 25.1217C41.2261 25.165 41.1675 25.2083 41.109 25.2733C41.0504 25.3166 41.0114 25.3815 40.9723 25.4465C40.9333 25.5114 40.8943 25.5764 40.8552 25.663C40.7967 25.8362 40.7772 26.0311 40.7577 26.226C40.6796 28.8244 40.621 31.4228 40.543 34.0213V34.2378V34.476C40.543 34.6709 40.5625 34.8441 40.6015 35.0173C40.6406 35.0823 40.6601 35.1473 40.6991 35.2122C40.7381 35.2772 40.7772 35.3421 40.8357 35.3854C40.8943 35.4287 40.9528 35.4721 41.0114 35.5154C41.0895 35.5587 41.148 35.5803 41.2261 35.602C41.3237 35.6236 41.4017 35.6453 41.4993 35.6453C41.5969 35.6453 41.6945 35.6453 41.8116 35.6453H42.0848H42.1824C43.8023 35.5803 45.4028 35.537 47.0227 35.4937C47.1398 35.4937 47.2374 35.4937 47.335 35.4721C47.4325 35.4504 47.5301 35.4288 47.6277 35.4071C47.7643 35.3638 47.901 35.2772 48.0181 35.1689C48.1937 34.9957 48.2913 34.7791 48.3303 34.5193C48.3499 34.4327 48.3499 34.3244 48.3499 34.2378C48.3499 33.8697 48.3499 33.5232 48.3499 33.1551C48.3499 32.8303 48.3499 32.5272 48.3499 32.2024H47.6863H47.1983L46.3396 32.224H45.8321V32.8953V33.4366H45.5394H45.3247C44.6416 33.4583 43.939 33.4799 43.2559 33.5016H43.0412C43.0607 32.5272 43.0802 31.5744 43.0997 30.6C43.1192 29.9071 43.1192 29.2142 43.1388 28.5429L43.1583 27.6118L43.1778 26.9406C44.0951 26.9189 44.9929 26.8756 45.9102 26.854C45.9102 27.0488 45.9102 27.2654 45.9102 27.4603V28.0449H46.5348H47.0032L47.8229 28.0232H48.3499C48.3499 27.9366 48.3499 27.8717 48.3499 27.7851V27.6551C48.3499 27.5469 48.3499 27.4386 48.3499 27.3303V26.8106C48.3499 26.7457 48.3499 26.7024 48.3499 26.6374C48.3499 26.5725 48.3499 26.5292 48.3499 26.4642C48.3499 26.3992 48.3499 26.3126 48.3499 26.2477C48.3499 26.1827 48.3499 26.0961 48.3499 26.0095C48.3499 25.9012 48.3499 25.8146 48.3303 25.728C48.3694 25.6847 48.3499 25.5764 48.3303 25.4898Z" fill="#FD0A04"/>
<path d="M55.3181 24.8185C55.3376 26.2043 55.3376 27.5902 55.3571 28.976C54.2251 28.9543 53.0931 28.9544 51.9611 28.9544C51.9611 27.5685 51.9611 26.1827 51.9611 24.7969C51.1609 24.7969 50.3607 24.7969 49.541 24.7969C49.5215 28.3697 49.5019 31.9425 49.4824 35.5154C50.3021 35.5154 51.1414 35.5154 51.9611 35.5154C51.9611 34.0213 51.9611 32.5488 51.9611 31.0547C53.0931 31.0547 54.2251 31.0547 55.3766 31.098C55.3961 32.5921 55.3961 34.0646 55.4156 35.5587C56.2549 35.5803 57.0746 35.602 57.9138 35.6236C57.8748 32.0508 57.8163 28.478 57.7772 24.8835C56.9575 24.8402 56.1378 24.8185 55.3181 24.8185Z" fill="#FD0A04"/>
<path d="M59.0068 24.9052C59.0849 28.478 59.1435 32.0724 59.2215 35.6453L60.8415 35.7102L62.0125 35.7535C61.9149 32.1807 61.8173 28.5862 61.7197 25.0134C60.8024 24.9485 59.9046 24.9268 59.0068 24.9052Z" fill="#FD0A04"/>
<path d="M68.5896 25.3816C68.6677 27.2871 68.7458 29.1709 68.8433 31.0764C67.5357 29.0843 66.228 27.1138 64.9594 25.165C64.2568 25.1217 63.5542 25.1001 62.8516 25.0568C62.9491 28.6512 63.0663 32.2241 63.1638 35.8185C63.9836 35.8618 64.7838 35.9052 65.6035 35.9485C65.5449 34.043 65.4669 32.1591 65.4083 30.2536C66.716 32.2241 68.0431 34.1945 69.3898 36.2083C70.112 36.2733 70.8341 36.3166 71.5562 36.3815C71.3806 32.7871 71.2049 29.1709 71.0293 25.5764C70.2095 25.4898 69.3898 25.4249 68.5896 25.3816Z" fill="#FD0A04"/>
<path d="M74.8944 34.5843C74.8358 33.6748 74.7968 32.7654 74.7382 31.8559C75.8702 31.9642 76.9827 32.0725 78.1147 32.2024C78.0757 31.5961 78.0366 30.9898 77.9976 30.3835C76.8851 30.2536 75.7531 30.1453 74.6406 30.037C74.6016 29.3441 74.5626 28.6512 74.5235 27.9583C75.7336 28.0666 76.9437 28.1965 78.1537 28.3264C78.1147 27.6118 78.0562 26.9189 78.0171 26.2044C76.0068 25.9878 73.9966 25.7929 71.9668 25.6414C72.162 29.2575 72.3376 32.852 72.5133 36.4681C74.5821 36.6413 76.6509 36.8579 78.7002 37.0961C78.6612 36.4031 78.6221 35.6886 78.5636 34.9957C77.3535 34.8224 76.124 34.6925 74.8944 34.5843Z" fill="#FD0A04"/>
<g opacity="0.25">
<path opacity="0.5" d="M22.4307 36.7929C22.6454 33.5233 22.8796 30.1886 23.1138 26.8756L24.5385 26.7241C25.046 28.1532 25.5534 29.604 26.0804 31.0331L26.8611 31.0548C27.5247 29.4741 28.2078 27.8717 28.8518 26.291L30.3937 26.1611C30.218 29.539 30.0424 32.852 29.8862 36.0134L28.5981 36.1217C28.6762 34.4977 28.7738 32.8737 28.8713 31.2496L28.0516 31.0548C27.6027 32.3107 27.1538 33.5666 26.7049 34.8225L25.7681 34.9307C25.4753 33.8048 25.1826 32.6788 24.8898 31.5528L24.0506 31.6611C23.953 33.3284 23.8359 34.974 23.7383 36.6414L22.4307 36.7929Z" fill="url(#paint14_linear)"/>
<path opacity="0.5" d="M32.1504 35.8185C33.0677 32.3973 33.9655 29.041 34.8047 25.8146C35.5074 25.7713 36.21 25.728 36.9126 25.6847C37.5176 28.8677 38.1617 32.1158 38.8253 35.3638L37.1273 35.4721C37.1273 35.3855 37.1078 35.2772 37.0882 35.1689C37.0492 34.8658 37.0102 34.5193 36.9711 34.1295L36.9126 33.6965L36.5222 33.7181C35.8391 33.7614 35.1756 33.8047 34.4925 33.8481L34.1802 33.8697L34.1021 34.1945C34.0826 34.2595 34.0631 34.3677 34.024 34.541L33.9265 35.0606C33.8874 35.2555 33.8094 35.667 33.8094 35.6886L32.1504 35.8185ZM35.3122 28.6296C35.2536 28.8461 35.2146 29.0843 35.156 29.3441C35.0975 29.604 35.0389 29.9071 34.9804 30.2103C34.8242 30.9465 34.3754 33.0252 34.3754 33.0252L34.9609 32.9819L36.249 32.8953L36.7174 32.8736L36.6394 32.354C36.5808 31.9425 36.5027 31.4445 36.4247 30.8166C36.3466 30.2103 36.249 29.4957 36.1514 28.6728L35.3122 28.6296Z" fill="url(#paint15_linear)"/>
<path opacity="0.5" d="M41.6753 35.2339H41.5191C41.4606 35.2339 41.402 35.2122 41.3435 35.1905H41.324H41.3045C41.2654 35.1905 41.2459 35.1689 41.2069 35.1472C41.1678 35.1256 41.1288 35.1039 41.1093 35.0606C41.0898 35.039 41.0702 35.0173 41.0702 35.0173C41.0507 34.974 41.0312 34.9307 41.0117 34.8874C40.9922 34.7575 40.9727 34.6492 40.9727 34.5193L40.9922 34.0646C41.0702 31.4661 41.1288 28.8677 41.2069 26.2909C41.2069 26.161 41.2264 26.0311 41.2654 25.9012C41.2849 25.8579 41.3045 25.7929 41.3435 25.7496C41.363 25.728 41.3825 25.6847 41.402 25.663C41.4411 25.6197 41.4801 25.598 41.5191 25.5764C41.5582 25.5547 41.5777 25.5331 41.6167 25.5331H41.6362H41.6558C41.7143 25.5114 41.7729 25.4898 41.8314 25.4898C41.9095 25.4898 42.0071 25.4681 42.0851 25.4681L42.6121 25.4465C44.0369 25.4032 45.4811 25.3598 46.9059 25.3382H47.1987C47.2767 25.3382 47.3353 25.3382 47.4133 25.3382C47.4719 25.3382 47.5304 25.3599 47.589 25.3815H47.6085C47.6671 25.4032 47.7451 25.4248 47.7842 25.4898C47.8427 25.5547 47.8818 25.6197 47.9208 25.7063C47.9403 25.7496 47.9598 25.8146 47.9598 25.8579C47.9598 25.9445 47.9793 26.0095 47.9598 26.0961L47.9403 27.6551L47.0035 27.6768L46.3204 27.6984L46.3399 26.5075H45.891C44.9737 26.5291 44.0564 26.5508 43.1391 26.5941L42.7292 26.6157L42.5731 34.1295L43.2367 34.1079C43.9198 34.0862 44.6224 34.0646 45.3055 34.0429L46.2228 34.0213L46.2423 32.8303L47.6671 32.8087H47.8818L47.8622 34.3461C47.8622 34.4327 47.8622 34.4976 47.8427 34.5843C47.8427 34.6276 47.8232 34.6709 47.8037 34.7142C47.7842 34.8008 47.7256 34.8657 47.6671 34.9307C47.589 34.9957 47.5109 35.039 47.4329 35.0823C47.3743 35.1039 47.2962 35.1256 47.2377 35.1256C47.1401 35.1256 47.062 35.1472 46.9645 35.1472C45.364 35.1689 43.7441 35.2339 42.1242 35.2988L41.7533 35.3205L41.6753 35.2339Z" fill="url(#paint16_linear)"/>
<path opacity="0.5" d="M57.4838 35.1039L55.8444 35.0606L55.8053 30.6H55.3955C54.244 30.5784 53.0924 30.5784 51.98 30.5567H51.5506V35.039H51.453H49.9307C49.9502 31.791 49.9697 28.5213 49.9697 25.2733H51.4725H51.5116V29.4307H51.9409C53.0534 29.4307 54.1854 29.4524 55.3369 29.4524H55.7858L55.7468 25.2949L57.3472 25.3382C57.3862 28.5862 57.4448 31.8559 57.4838 35.1039Z" fill="url(#paint17_linear)"/>
<path opacity="0.5" d="M60.8408 35.2122L59.6307 35.1689C59.5722 31.8992 59.5136 28.6512 59.4355 25.3815C60.0601 25.4032 60.6651 25.4248 61.2897 25.4465C61.3872 28.7162 61.4653 31.9642 61.5629 35.2339L60.8408 35.2122Z" fill="url(#paint18_linear)"/>
<path opacity="0.5" d="M71.0872 35.8402L69.6038 35.7319C68.2962 33.8047 67.008 31.8776 65.7394 29.9504L64.9587 30.2536C65.0173 31.9858 65.0758 33.6965 65.1344 35.4287L63.5535 35.3421C63.4559 32.0725 63.3583 28.8028 63.2607 25.5547L64.705 25.6197C65.8956 27.4386 67.1642 29.3658 68.4718 31.3579L69.2525 31.0547C69.1745 29.3441 69.0964 27.6118 69.0378 25.9012L70.5992 26.0095C70.7749 29.2791 70.931 32.5705 71.0872 35.8402Z" fill="url(#paint19_linear)"/>
<path opacity="0.5" d="M78.2497 36.5331C76.4736 36.3382 74.6976 36.165 72.9215 35.9917C72.7654 32.7004 72.5897 29.3874 72.4141 26.1394C74.1316 26.291 75.8686 26.4425 77.6056 26.6158L77.6837 27.7851C76.6298 27.6768 75.5759 27.5685 74.5414 27.4819L74.0535 27.4386L74.2292 30.4917L74.6 30.5351C75.5759 30.6217 76.5907 30.7299 77.5861 30.8382C77.6056 31.1197 77.6252 31.4012 77.6447 31.6827C76.6688 31.5744 75.7125 31.4878 74.7756 31.4012L74.2877 31.3579L74.4829 35.039L74.8537 35.0823C75.9467 35.1906 77.0787 35.2988 78.1716 35.4287L78.2497 36.5331Z" fill="url(#paint20_linear)"/>
</g>
<path d="M33.6731 21.787C34.4733 21.7221 35.2735 21.6788 36.0737 21.6355C36.1128 20.8343 36.1323 20.0548 36.1713 19.2536C36.386 14.0351 36.6007 8.79494 36.8154 3.5548C36.8544 2.75362 36.8739 1.97409 36.913 1.17291C36.1518 1.21622 35.3906 1.23787 34.649 1.28118C31.6433 1.43275 28.6377 1.62763 25.632 1.86582C24.8708 1.93078 24.1292 1.99575 23.368 2.06071C23.3095 2.86189 23.2314 3.68472 23.1728 4.4859C22.763 9.83431 22.3726 15.1394 21.9823 20.4445C21.9237 21.2457 21.8652 22.0469 21.8066 22.8481C22.6068 22.7615 23.3875 22.6748 24.1877 22.5882C27.33 22.2851 30.5113 22.0036 33.6731 21.787ZM27.4081 5.76345C29.0475 5.63353 30.6675 5.52527 32.3069 5.417C32.0922 9.59613 31.858 13.7969 31.6433 17.976L31.1163 18.0193C29.9258 18.1059 28.7352 18.2142 27.5447 18.3225L26.9982 18.3658L26.5884 18.4091C26.8616 14.1867 27.1348 9.98588 27.4081 5.76345Z" fill="white"/>
<path d="M43.7636 0.934692C42.1632 0.977999 40.5432 1.02131 38.9428 1.08627C38.6891 7.90712 38.4549 14.7063 38.2207 21.5055C39.9382 21.4189 41.6362 21.3539 43.3537 21.289C43.4708 14.5114 43.6075 7.73389 43.7636 0.934692Z" fill="white"/>
<path d="M55.4739 21.2024C55.4739 19.8382 55.4739 18.4741 55.4739 17.1099C53.5026 17.0882 51.5119 17.0666 49.5406 17.0882C49.5601 11.6749 49.5797 6.26149 49.6187 0.848114C48.1744 0.848114 46.7301 0.869765 45.2859 0.913072C45.1492 7.69062 45.0321 14.4898 44.915 21.2674C48.4281 21.1591 51.9608 21.1374 55.4739 21.2024Z" fill="white"/>
<path d="M61.8955 21.354C61.7199 14.5765 61.5247 7.77725 61.3295 0.978049C59.7291 0.934742 58.1092 0.891435 56.4893 0.869781C56.5868 7.64733 56.6649 14.4249 56.7625 21.2024C58.4605 21.2457 60.178 21.289 61.8955 21.354Z" fill="white"/>
<path d="M68.4719 21.7004C68.3157 18.0843 68.1596 14.4898 68.0035 10.8737C70.4236 14.6197 72.8828 18.3874 75.4005 22.2201C76.7276 22.3284 78.0548 22.4583 79.382 22.6099C78.9331 15.724 78.4452 8.81657 77.9377 1.86579C76.4934 1.75752 75.0492 1.64925 73.5854 1.54098C73.8001 5.17878 74.0343 8.79492 74.249 12.4111C71.8093 8.62169 69.4282 4.85398 67.0862 1.17288C65.8371 1.10792 64.588 1.06461 63.3193 1.0213C63.5535 7.82051 63.7682 14.6197 63.9829 21.4189C65.4857 21.5272 66.969 21.6138 68.4719 21.7004Z" fill="white"/>
<g opacity="0.5">
<path opacity="0.5" d="M22.7441 20.5095C23.1149 15.3344 23.5052 9.98594 23.9346 4.5509L24.0712 2.86193L25.6717 2.732C28.6578 2.49381 31.7025 2.29894 34.6691 2.14736L36.0938 2.0824L36.0353 3.51153C35.8206 8.81664 35.6059 14.1001 35.3912 19.2103L35.3327 20.8127L33.6347 20.921C30.4924 21.1375 27.2916 21.419 24.1103 21.7438L22.6465 21.8954L22.7441 20.5095ZM32.2685 4.5509C30.629 4.65917 28.9701 4.76743 27.3501 4.89736L26.667 4.94067L26.628 5.69854C26.3548 9.96428 26.0815 14.2084 25.8278 18.3225L25.7692 19.3186L27.6429 19.1454C28.8139 19.0371 30.024 18.9505 31.195 18.8639L32.4051 18.7773L32.4441 18.0194C32.6588 13.9485 32.8735 9.72609 33.1077 5.482L33.1663 4.50759L32.2685 4.5509Z" fill="url(#paint21_linear)"/>
<path opacity="0.5" d="M39.0215 20.6178C39.2362 14.5548 39.4509 8.29694 39.6851 1.93081C40.778 1.8875 41.871 1.86585 42.964 1.82254C42.8273 8.0804 42.6907 14.3383 42.5736 20.4662C41.4026 20.5095 40.212 20.5528 39.0215 20.6178Z" fill="url(#paint22_linear)"/>
<path opacity="0.5" d="M45.7158 20.3796C45.8134 14.3166 45.9305 8.05874 46.0476 1.75757C46.9649 1.73591 47.9017 1.73592 48.8191 1.71426C48.7995 6.84615 48.78 11.9564 48.7605 17.0666V17.9327H49.5412C50.2828 17.9327 51.005 17.9327 51.7466 17.9327C52.7225 17.9327 53.7179 17.9327 54.6937 17.9544V20.3146C53.7179 20.3146 52.7225 20.293 51.7466 20.293C49.7364 20.293 47.7261 20.3146 45.7158 20.3796Z" fill="url(#paint23_linear)"/>
<path opacity="0.5" d="M61.0949 20.4662C59.9044 20.4229 58.7138 20.3796 57.5428 20.3579C57.4647 14.1434 57.3866 7.95045 57.2891 1.75754C58.382 1.77919 59.475 1.80085 60.5679 1.8225C60.7436 8.10203 60.9193 14.3599 61.0949 20.4662Z" fill="url(#paint24_linear)"/>
<path opacity="0.5" d="M78.5434 21.6572C77.626 21.5706 76.7283 21.4839 75.8305 21.3973C73.1176 17.2832 70.756 13.667 68.6482 10.3757L67.2429 10.917C67.3795 14.2084 67.5357 17.4997 67.6723 20.7694C66.6964 20.7044 65.7401 20.6611 64.7837 20.6178C64.5886 14.5765 64.3934 8.29697 64.1787 1.93085C65.0179 1.9525 65.8767 1.99581 66.7159 2.03911C68.8043 5.37375 71.0683 8.92492 73.6445 12.9525L75.0498 12.3895C74.8546 9.14145 74.6594 5.80682 74.4643 2.49384C75.3816 2.5588 76.3184 2.62376 77.2357 2.68872C77.6846 9.1198 78.1335 15.4859 78.5434 21.6572Z" fill="url(#paint25_linear)"/>
</g>
<path d="M3.87072 4.31267C2.68017 14.9878 1.5872 25.4898 0.630859 35.8185C3.4023 37.3559 6.21278 38.9366 9.04278 40.539C8.26209 38.6118 7.50092 36.663 6.75926 34.7358C9.62829 34.2595 12.5168 33.8047 15.4444 33.3933C16.635 33.2201 17.806 33.0685 18.9966 32.9169C19.0746 31.726 19.1722 30.5134 19.2503 29.3225C19.4259 26.789 19.6211 24.2555 19.8163 21.7221C19.8553 21.1807 19.8358 20.6178 19.7968 20.0764C19.7577 19.3835 19.5625 18.9071 19.2112 18.604C18.8794 18.2575 18.4891 17.9977 18.0597 17.8461C17.6108 17.6729 17.1229 17.478 16.6155 17.2615C17.0058 16.98 17.3961 16.6768 17.7865 16.352C18.1768 16.0272 18.6648 15.6375 19.2698 15.1394C19.8163 14.6847 20.2066 14.0134 20.3237 13.2772C20.4213 12.5627 20.4994 11.9347 20.5384 11.3717C20.675 9.57447 20.8312 7.77722 20.9678 5.97998C21.0654 4.74573 21.163 3.48983 21.2801 2.25558C20.1676 2.36385 19.0551 2.47212 17.9426 2.58039C13.239 3.03511 8.55485 3.61976 3.87072 4.31267ZM12.6535 27.915C10.9945 28.1532 9.35505 28.413 7.69609 28.6729C7.93029 26.0961 8.18402 23.4977 8.41822 20.8993L9.35505 20.7693L10.9164 20.5528L12.4778 20.3363L13.3756 20.2063C13.1414 22.7615 12.8877 25.3382 12.6535 27.915ZM13.8245 15.0095C12.185 15.226 10.5651 15.4426 8.94519 15.6808C9.14036 13.6453 9.35505 11.6099 9.56974 9.55281C11.1702 9.33628 12.7901 9.11974 14.41 8.92486C14.2148 10.9603 14.0197 12.9957 13.8245 15.0095Z" fill="white"/>
<path opacity="0.5" d="M7.46151 38.6552C5.47075 37.5292 3.46048 36.4032 1.46973 35.2989C2.348 25.7497 3.40193 15.5942 4.57296 5.09223C9.02289 4.44263 13.5314 3.90129 18.0008 3.44656C18.801 3.35995 19.6207 3.27333 20.4014 3.20837C20.3234 4.11782 20.2453 5.00562 20.1867 5.91506C20.0501 7.7123 19.894 9.5312 19.7574 11.3284C19.7183 11.8698 19.6402 12.4977 19.5427 13.1906C19.4451 13.7103 19.1914 14.1867 18.801 14.4899C18.2155 14.9662 17.708 15.356 17.3177 15.6808C16.9274 16.0056 16.576 16.2871 16.1857 16.5686L16.3223 18.106C16.8493 18.3442 17.3372 18.5391 17.8251 18.7123C18.1374 18.8206 18.4302 19.0154 18.6644 19.2753L18.7034 19.3186L18.7425 19.3619C18.9376 19.5135 18.9962 19.9032 19.0157 20.1847C19.0547 20.6828 19.0742 21.2024 19.0352 21.7005C18.84 24.2339 18.6644 26.7674 18.4692 29.3009C18.3911 30.2536 18.3326 31.228 18.2545 32.1808C17.2787 32.3107 16.3028 32.4406 15.3269 32.5705C12.575 32.9603 9.72551 33.3934 6.64179 33.913L5.64641 34.0863L6.05627 35.1257C6.5442 36.3382 7.01261 37.5292 7.46151 38.6552ZM12.3798 19.4485L10.8185 19.665L9.25709 19.9032L7.71523 20.1414L7.65668 20.8127C7.40296 23.4328 7.14924 26.0528 6.91503 28.5863L6.81744 29.6906L7.81282 29.539C9.47178 29.2792 11.1503 29.0194 12.7507 28.7812L13.3752 28.6946L13.4338 28.0016C13.668 25.4682 13.9022 22.8698 14.1559 20.2713L14.2535 19.1887L12.3798 19.4485ZM14.3121 8.08041C12.7116 8.2753 11.0722 8.49183 9.47178 8.70836L8.86675 8.79498L8.8082 9.46624C8.59351 11.5233 8.39834 13.5588 8.18365 15.5942L8.06654 16.6985L9.06192 16.5469C10.6819 16.3087 12.3213 16.0922 13.9412 15.8757L14.5658 15.7891L14.6243 15.0962C14.8 13.0824 14.9952 11.0469 15.1903 9.01151L15.2879 7.95049L14.3121 8.08041Z" fill="url(#paint26_linear)"/>
<path d="M103.175 35.8619H103.194V35.8402C103.077 34.6493 102.96 33.4367 102.843 32.2457C102.589 29.6473 102.316 27.0489 102.062 24.4288H102.023C101.848 22.7398 101.672 21.0292 101.477 19.3186C98.2954 18.7772 95.0751 18.2792 91.8547 17.8245C92.0109 19.5135 92.167 21.1808 92.3231 22.8697C93.3575 23.0213 94.4115 23.1729 95.4459 23.3461C95.6215 25.1434 95.7777 26.919 95.9533 28.6945C93.4942 28.3048 91.0155 27.915 88.5368 27.5902C88.0294 21.3323 87.4829 15.0528 86.9364 8.73C89.337 9.01149 91.7181 9.31465 94.0992 9.63945C94.2163 10.7871 94.3334 11.9564 94.4505 13.104C96.6364 13.4072 98.8028 13.7536 100.969 14.1001C100.618 10.852 100.247 7.60402 99.8763 4.33434C98.7638 4.18276 97.6709 4.00953 96.5584 3.85796L96.3242 3.8363C91.9913 3.25166 87.6585 2.75363 83.3062 2.34221C82.1937 2.23394 81.0812 2.12568 79.9688 2.03906C80.0663 3.23001 80.1444 4.42095 80.242 5.61189C80.847 13.4721 81.413 21.289 81.94 29.0843C82.0181 30.2753 82.0961 31.4445 82.1742 32.6355C83.3647 32.7871 84.5553 32.9386 85.7458 33.0902C89.5517 33.5882 93.338 34.1512 97.0853 34.8008C96.3047 36.728 95.5435 38.6552 94.7823 40.5823C97.6123 38.98 100.423 37.3993 103.175 35.8619Z" fill="white"/>
<path opacity="0.5" d="M96.3814 38.6984C96.8303 37.5724 97.2792 36.3815 97.7866 35.1256L98.1769 34.0862L97.1816 33.913C93.2586 33.2634 89.4332 32.6787 85.803 32.2024C84.8272 32.0725 83.8318 31.9425 82.8755 31.8343C82.8169 30.9032 82.7388 29.9504 82.6803 29.0193C82.1728 21.4622 81.5873 13.5587 80.9823 5.52524C80.9237 4.68075 80.8457 3.81461 80.7871 2.97012C81.5873 3.03508 82.407 3.1217 83.2072 3.18666C87.5205 3.59808 91.8924 4.0961 96.1862 4.68075L96.4204 4.7024C97.3182 4.83233 98.2355 4.96225 99.1333 5.09217C99.4456 7.79886 99.7383 10.4622 100.031 13.0607C98.3916 12.8008 96.7522 12.541 95.1127 12.3028C95.0152 11.3717 94.9176 10.4406 94.82 9.50949L94.7419 8.83823L94.1369 8.75161C91.7558 8.42681 89.3357 8.12366 86.9546 7.84216L85.9982 7.7339L86.0958 8.79492C86.6618 15.226 87.2083 21.5705 87.6962 27.6551L87.7548 28.348L88.3793 28.4347C90.7994 28.7595 93.2781 29.1492 95.7763 29.539L96.7717 29.6906L96.6741 28.5862C96.518 26.8106 96.3423 25.0134 96.1667 23.2378L96.1081 22.5666L95.5421 22.4799C94.7224 22.35 93.8636 22.2201 93.0244 22.0902C92.9268 21.0075 92.8292 19.9032 92.7316 18.8205C95.3665 19.2103 98.0598 19.6217 100.773 20.0764C100.929 21.5705 101.085 23.0429 101.241 24.537L101.3 25.1866H101.339C101.592 27.6118 101.827 30.0154 102.061 32.3323C102.158 33.3283 102.256 34.3244 102.354 35.3205C100.382 36.4681 98.3721 37.5724 96.3814 38.6984Z" fill="url(#paint27_linear)"/>
<defs>
<linearGradient id="paint0_linear" x1="26.2169" y1="36.7994" x2="26.2169" y2="26.1524" gradientUnits="userSpaceOnUse">
<stop offset="0.5"/>
<stop offset="1" stop-opacity="0.25"/>
</linearGradient>
<linearGradient id="paint1_linear" x1="35.2837" y1="35.8207" x2="35.2837" y2="25.689" gradientUnits="userSpaceOnUse">
<stop offset="0.5"/>
<stop offset="1" stop-opacity="0.25"/>
</linearGradient>
<linearGradient id="paint2_linear" x1="44.2717" y1="35.2339" x2="44.2717" y2="25.2992" gradientUnits="userSpaceOnUse">
<stop offset="0.5"/>
<stop offset="1" stop-opacity="0.25"/>
</linearGradient>
<linearGradient id="paint3_linear" x1="53.511" y1="35.1061" x2="53.511" y2="25.2646" gradientUnits="userSpaceOnUse">
<stop offset="0.5"/>
<stop offset="1" stop-opacity="0.25"/>
</linearGradient>
<linearGradient id="paint4_linear" x1="60.2971" y1="35.2447" x2="60.2971" y2="25.388" gradientUnits="userSpaceOnUse">
<stop offset="0.5"/>
<stop offset="1" stop-opacity="0.25"/>
</linearGradient>
<linearGradient id="paint5_linear" x1="66.9874" y1="35.8467" x2="66.9874" y2="25.5417" gradientUnits="userSpaceOnUse">
<stop offset="0.5"/>
<stop offset="1" stop-opacity="0.25"/>
</linearGradient>
<linearGradient id="paint6_linear" x1="75.1453" y1="36.5417" x2="75.1453" y2="26.1481" gradientUnits="userSpaceOnUse">
<stop offset="0.5"/>
<stop offset="1" stop-opacity="0.25"/>
</linearGradient>
<linearGradient id="paint7_linear" x1="29.169" y1="2.0759" x2="29.169" y2="21.891" gradientUnits="userSpaceOnUse">
<stop offset="0.5" stop-color="white"/>
<stop offset="1" stop-opacity="0.25"/>
</linearGradient>
<linearGradient id="paint8_linear" x1="40.7964" y1="1.82252" x2="40.7964" y2="20.6091" gradientUnits="userSpaceOnUse">
<stop offset="0.5" stop-color="white"/>
<stop offset="1" stop-opacity="0.25"/>
</linearGradient>
<linearGradient id="paint9_linear" x1="50.0017" y1="1.7121" x2="50.0017" y2="20.3709" gradientUnits="userSpaceOnUse">
<stop offset="0.5" stop-color="white"/>
<stop offset="1" stop-opacity="0.25"/>
</linearGradient>
<linearGradient id="paint10_linear" x1="58.9869" y1="1.75754" x2="58.9869" y2="20.4684" gradientUnits="userSpaceOnUse">
<stop offset="0.5" stop-color="white"/>
<stop offset="1" stop-opacity="0.25"/>
</linearGradient>
<linearGradient id="paint11_linear" x1="71.1511" y1="1.94384" x2="71.1511" y2="21.6572" gradientUnits="userSpaceOnUse">
<stop offset="0.5" stop-color="white"/>
<stop offset="1" stop-opacity="0.25"/>
</linearGradient>
<linearGradient id="paint12_linear" x1="10.7481" y1="3.19322" x2="10.7481" y2="38.653" gradientUnits="userSpaceOnUse">
<stop offset="0.5" stop-color="white"/>
<stop offset="1" stop-opacity="0.25"/>
</linearGradient>
<linearGradient id="paint13_linear" x1="91.3819" y1="2.99825" x2="91.3819" y2="38.7049" gradientUnits="userSpaceOnUse">
<stop offset="0.5" stop-color="white"/>
<stop offset="1" stop-opacity="0.25"/>
</linearGradient>
<linearGradient id="paint14_linear" x1="26.4112" y1="36.7994" x2="26.4112" y2="26.1524" gradientUnits="userSpaceOnUse">
<stop offset="0.5"/>
<stop offset="1" stop-opacity="0.25"/>
</linearGradient>
<linearGradient id="paint15_linear" x1="35.4781" y1="35.8207" x2="35.4781" y2="25.689" gradientUnits="userSpaceOnUse">
<stop offset="0.5"/>
<stop offset="1" stop-opacity="0.25"/>
</linearGradient>
<linearGradient id="paint16_linear" x1="44.4661" y1="35.2339" x2="44.4661" y2="25.2992" gradientUnits="userSpaceOnUse">
<stop offset="0.5"/>
<stop offset="1" stop-opacity="0.25"/>
</linearGradient>
<linearGradient id="paint17_linear" x1="53.7053" y1="35.1061" x2="53.7053" y2="25.2646" gradientUnits="userSpaceOnUse">
<stop offset="0.5"/>
<stop offset="1" stop-opacity="0.25"/>
</linearGradient>
<linearGradient id="paint18_linear" x1="60.4914" y1="35.2447" x2="60.4914" y2="25.388" gradientUnits="userSpaceOnUse">
<stop offset="0.5"/>
<stop offset="1" stop-opacity="0.25"/>
</linearGradient>
<linearGradient id="paint19_linear" x1="67.1818" y1="35.8467" x2="67.1818" y2="25.5417" gradientUnits="userSpaceOnUse">
<stop offset="0.5"/>
<stop offset="1" stop-opacity="0.25"/>
</linearGradient>
<linearGradient id="paint20_linear" x1="75.3397" y1="36.5417" x2="75.3397" y2="26.1481" gradientUnits="userSpaceOnUse">
<stop offset="0.5"/>
<stop offset="1" stop-opacity="0.25"/>
</linearGradient>
<linearGradient id="paint21_linear" x1="29.3643" y1="2.0759" x2="29.3643" y2="21.891" gradientUnits="userSpaceOnUse">
<stop offset="0.5" stop-color="white"/>
<stop offset="1" stop-opacity="0.25"/>
</linearGradient>
<linearGradient id="paint22_linear" x1="40.9917" y1="1.82252" x2="40.9917" y2="20.6091" gradientUnits="userSpaceOnUse">
<stop offset="0.5" stop-color="white"/>
<stop offset="1" stop-opacity="0.25"/>
</linearGradient>
<linearGradient id="paint23_linear" x1="50.197" y1="1.7121" x2="50.197" y2="20.3709" gradientUnits="userSpaceOnUse">
<stop offset="0.5" stop-color="white"/>
<stop offset="1" stop-opacity="0.25"/>
</linearGradient>
<linearGradient id="paint24_linear" x1="59.1822" y1="1.75754" x2="59.1822" y2="20.4684" gradientUnits="userSpaceOnUse">
<stop offset="0.5" stop-color="white"/>
<stop offset="1" stop-opacity="0.25"/>
</linearGradient>
<linearGradient id="paint25_linear" x1="71.3464" y1="1.94384" x2="71.3464" y2="21.6572" gradientUnits="userSpaceOnUse">
<stop offset="0.5" stop-color="white"/>
<stop offset="1" stop-opacity="0.25"/>
</linearGradient>
<linearGradient id="paint26_linear" x1="10.9424" y1="3.19322" x2="10.9424" y2="38.653" gradientUnits="userSpaceOnUse">
<stop offset="0.5" stop-color="white"/>
<stop offset="1" stop-opacity="0.25"/>
</linearGradient>
<linearGradient id="paint27_linear" x1="91.5762" y1="2.99825" x2="91.5762" y2="38.7049" gradientUnits="userSpaceOnUse">
<stop offset="0.5" stop-color="white"/>
<stop offset="1" stop-opacity="0.25"/>
</linearGradient>
</defs>
</svg>
