<svg width="16" height="23" viewBox="0 0 16 23" fill="none" xmlns="http://www.w3.org/2000/svg">
<path d="M8 0C3.5888 0 0 3.62735 0 8.08594C0 9.59235 0.412845 11.0625 1.19418 12.3379L7.54462 22.6815C7.66627 22.8796 7.88058 23 8.11107 23C8.11284 23 8.11458 23 8.11636 23C8.34885 22.9982 8.5636 22.874 8.68302 22.6724L14.8716 12.2286C15.6098 10.9802 16 9.54765 16 8.08594C16 3.62735 12.4112 0 8 0ZM13.7274 11.5367L8.10098 21.0318L2.32742 11.6278C1.67707 10.5663 1.32444 9.3415 1.32444 8.08594C1.32444 4.37045 4.324 1.33867 8 1.33867C11.676 1.33867 14.6711 4.37045 14.6711 8.08594C14.6711 9.30426 14.3417 10.4977 13.7274 11.5367Z" fill="white" fill-opacity="0.6"/>
<path d="M8 4.04297C5.7944 4.04297 4 5.85664 4 8.08594C4 10.301 5.7652 12.1289 8 12.1289C10.2624 12.1289 12 10.2766 12 8.08594C12 5.85664 10.2056 4.04297 8 4.04297ZM8 10.7902C6.52191 10.7902 5.32444 9.57586 5.32444 8.08594C5.32444 6.59974 6.5296 5.38164 8 5.38164C9.4704 5.38164 10.6711 6.59974 10.6711 8.08594C10.6711 9.55412 9.50151 10.7902 8 10.7902Z" fill="white" fill-opacity="0.6"/>
</svg>
