<svg width="38" height="43" viewBox="0 0 38 43" fill="none" xmlns="http://www.w3.org/2000/svg">
<path d="M25.3349 0H12.6675V4.09524H25.3349V0ZM16.89 26.619H21.1124V14.3333H16.89V26.619ZM33.8432 13.0843L36.8412 10.1767C35.9334 9.13238 34.9411 8.14952 33.8644 7.28952L30.8664 10.1971C27.5039 7.57276 23.3173 6.14222 19.0012 6.14286C8.50831 6.14286 0 14.3948 0 24.5714C0 34.7481 8.4872 43 19.0012 43C22.5783 43.0019 26.0832 42.0238 29.1122 40.1783C32.1412 38.3328 34.5712 35.6951 36.1222 32.5689C37.6732 29.4427 38.2822 25.9551 37.879 22.5079C37.4758 19.0608 36.0768 15.7941 33.8432 13.0843ZM19.0012 38.9048C10.8307 38.9048 4.22249 32.4957 4.22249 24.5714C4.22249 16.6471 10.8307 10.2381 19.0012 10.2381C27.1717 10.2381 33.7799 16.6471 33.7799 24.5714C33.7799 32.4957 27.1717 38.9048 19.0012 38.9048Z" fill="#FFA800"/>
</svg>
