<svg width="29" height="17" viewBox="0 0 29 17" fill="none" xmlns="http://www.w3.org/2000/svg">
<path d="M25.8699 11.2738L25.8542 11.2594C25.6067 11.0337 24.8482 10.305 24.5924 9.98653C24.2922 9.58919 24.3614 9.3288 24.5865 8.93867C24.8708 8.44565 25.4405 7.68941 26.0434 6.88861C27.9745 4.32455 29.2213 2.5495 28.9646 1.28866L28.8263 0.615212L21.6947 0.61827C21.6697 0.684676 21.2975 2.29873 19.7271 5.04715C18.5883 7.03998 17.8414 7.66603 17.5783 7.77657L17.5376 7.76433C17.452 7.65992 17.3024 7.37813 17.2409 6.65182C17.1767 5.89099 17.2336 4.96982 17.2887 4.07902C17.3531 3.03444 17.4086 2.13228 17.2756 1.48679L17.059 0.435217C16.7973 0.393931 15.839 0.0289173 13.1692 0.00117534C10.8577 -0.0221978 10.1787 0.307429 9.84529 0.597955L8.74235 1.55887L10.1365 2.02197C10.667 2.19825 10.8431 2.40162 10.9876 3.40972C11.0819 4.06679 11.1312 5.17101 11.0294 6.15683C10.8832 7.57036 10.5325 7.83336 10.5144 7.84734C10.454 7.82703 9.94176 7.60575 9.05254 5.74966C8.43569 4.46239 7.89495 2.93964 7.49979 1.82778C7.04755 0.554485 7.12897 0.82557 6.89954 0.223985L0 0.223766L0.446487 1.36403C2.30788 6.12232 4.01573 9.83821 6.30127 12.5071C8.82642 15.4558 11.9647 16.9998 16.1919 16.9998H17.0415V16.161C17.0415 15.3768 17.1072 14.8121 17.2482 14.384C17.3342 14.1231 17.4486 13.9075 17.5688 13.6815C17.7471 13.3485 17.9214 13.2059 18.0166 13.1847C18.1029 13.1653 18.2547 13.2277 18.4228 13.3516C18.9056 13.707 19.2888 14.174 19.6946 14.6686C20.28 15.3822 20.8853 16.1199 21.8458 16.6029C22.3706 16.8668 23.3326 17 23.8621 17C24.0021 17 28.9938 16.9998 29 16.9998L28.9635 16.1265C28.9091 14.8206 27.8681 13.1878 25.8699 11.2738V11.2738ZM23.895 15.3222H23.8813C23.5163 15.3281 22.8195 15.2099 22.6169 15.1081C21.9783 14.787 21.5321 14.2428 21.015 13.6129C20.5612 13.0595 20.0919 12.4875 19.4386 12.0067C18.9102 11.6176 18.4303 11.5038 18.0493 11.5038C17.8971 11.5038 17.7604 11.5219 17.6431 11.5482C17.2008 11.6465 16.5683 11.9606 16.0654 12.8997C15.9235 13.1668 15.7627 13.4693 15.6324 13.8652C15.4959 14.2793 15.4109 14.7396 15.3704 15.2994C12.1848 15.1208 9.69904 13.8765 7.59892 11.4241C5.64636 9.14378 4.11021 5.95434 2.48334 1.90073C2.60104 1.90073 5.55056 1.90117 5.72469 1.90117C5.77801 2.04906 5.83553 2.21114 5.8966 2.38283C6.32251 3.58229 6.90595 5.22474 7.59338 6.62538C8.57774 8.63111 9.47668 9.52562 10.5079 9.52562C11.0228 9.52562 11.4846 9.31024 11.8432 8.90241C12.3545 8.32114 12.6514 7.36175 12.751 5.96919C12.8295 4.87109 12.7565 3.77736 12.6702 3.17468C12.599 2.67882 12.4974 2.15828 12.2496 1.69191C13.3057 1.64494 14.7197 1.71921 15.6156 1.84612C15.697 2.28388 15.6439 3.14432 15.5925 3.97679C15.4684 5.98776 15.3403 8.06294 16.4185 9.03391C16.6081 9.20473 16.8092 9.29626 16.815 9.29997L17.3637 9.4662C17.5754 9.40176 18.8018 10.016 21.1241 6.01484C21.8681 4.73282 22.5609 3.2555 22.9339 2.29065C23.799 2.2889 26.7463 2.29218 27.0926 2.29262C26.6021 3.35839 25.4396 4.87852 24.6798 5.88749C24.0174 6.76693 23.4455 7.52645 23.1098 8.10838C22.4863 9.18944 22.5912 10.153 23.2406 11.0029L23.2508 11.016C23.6132 11.4715 24.5081 12.3147 24.6938 12.4846C26.0385 13.7736 26.6866 14.6996 26.995 15.3219H23.895V15.3222Z" fill="white" fill-opacity="0.6"/>
</svg>
