<svg width="24" height="18" viewBox="0 0 24 18" fill="none" xmlns="http://www.w3.org/2000/svg">
<path d="M11.9991 -9.77307e-08C11.9971 -9.77307e-08 11.9949 -9.77307e-08 11.9927 -9.77307e-08C11.2685 0.00513094 4.86644 0.065753 3.0526 0.574864C1.78496 0.928525 0.784286 1.96594 0.442612 3.28176C-0.0319978 5.13102 -0.0017854 8.69138 0.00151049 8.97568C-0.0016023 9.25864 -0.0321809 12.8485 0.441147 14.7129C0.441696 14.7146 0.442062 14.7165 0.442612 14.7182C0.780441 16.019 1.80363 17.0886 3.04948 17.4432C3.0526 17.4441 3.05589 17.4449 3.05901 17.4458C4.85234 17.935 11.2671 17.9949 11.9927 18H12.0057C12.7317 17.9949 19.1509 17.9342 20.948 17.4244C22.2124 17.0717 23.2123 16.0356 23.5549 14.7215C24.0473 12.8557 24.0017 9.25807 23.9967 8.95439C24.0002 8.65527 24.029 5.12684 23.5571 3.26827C23.5567 3.26637 23.5562 3.26466 23.5558 3.26295C23.214 1.94713 22.2135 0.909711 20.9444 0.55567C20.9427 0.5551 20.9409 0.55472 20.9393 0.55415C19.1461 0.0651828 12.7312 0.00532101 12.0057 -9.77307e-08C12.0035 -9.77307e-08 12.0013 -9.77307e-08 11.9991 -9.77307e-08V-9.77307e-08ZM2.25352 14.2139C1.83678 12.5681 1.87614 9.02413 1.87651 8.98841V8.96275C1.86406 7.97988 1.90782 5.13349 2.25371 3.78536C2.42143 3.1398 2.9149 2.62841 3.54076 2.45377C4.87907 2.07806 10.0934 1.95986 11.9991 1.94599C13.9098 1.95986 19.1318 2.07483 20.4602 2.43552C21.0841 2.61074 21.5759 3.12042 21.7447 3.76674C22.091 5.13463 22.1344 7.96714 22.1217 8.94375C22.1217 8.95401 22.1217 8.96427 22.1219 8.97453C22.1391 9.96919 22.1053 12.8488 21.7464 14.2078C21.746 14.2091 21.7456 14.2105 21.7455 14.2118C21.577 14.8602 21.0834 15.3716 20.4575 15.5462C19.1322 15.9223 13.9095 16.0401 11.9991 16.054C10.0897 16.0401 4.87285 15.9254 3.54039 15.565C2.92644 15.3883 2.4218 14.8587 2.25352 14.2139V14.2139ZM22.6506 3.51608H22.6511H22.6506ZM9.60942 5.05957V12.9406L16.1719 9L9.60942 5.05957Z" fill="white" fill-opacity="0.6"/>
</svg>
